<?xml version="1.0" encoding="UTF-8" standalone="no"?>
<svg
   xmlns:dc="http://purl.org/dc/elements/1.1/"
   xmlns:cc="http://creativecommons.org/ns#"
   xmlns:rdf="http://www.w3.org/1999/02/22-rdf-syntax-ns#"
   xmlns:svg="http://www.w3.org/2000/svg"
   xmlns="http://www.w3.org/2000/svg"
   xmlns:sodipodi="http://sodipodi.sourceforge.net/DTD/sodipodi-0.dtd"
   xmlns:inkscape="http://www.inkscape.org/namespaces/inkscape"
   width="553.53821"
   height="247.30324"
   viewBox="0 0 146.45698 65.432318"
   version="1.1"
   id="svg8"
   inkscape:version="1.0.2 (e86c870, 2021-01-15)"
   sodipodi:docname="layout.svg">
  <defs
     id="defs2" />
  <sodipodi:namedview
     id="base"
     pagecolor="#ffffff"
     bordercolor="#666666"
     borderopacity="1.0"
     inkscape:pageopacity="0.0"
     inkscape:pageshadow="2"
     inkscape:zoom="0.70710678"
     inkscape:cx="717.93416"
     inkscape:cy="410.72026"
     inkscape:document-units="px"
     inkscape:current-layer="layer2"
     showgrid="false"
     units="px"
     inkscape:window-width="2556"
     inkscape:window-height="1404"
     inkscape:window-x="1280"
     inkscape:window-y="16"
     inkscape:window-maximized="0"
     inkscape:document-rotation="0"
     inkscape:snap-global="false"
     showguides="true"
     inkscape:guide-bbox="true"
     fit-margin-top="0"
     fit-margin-left="0"
     fit-margin-right="0"
     fit-margin-bottom="0">
    <sodipodi:guide
       position="29.541616,123.58121"
       orientation="0.92280609,0.38526475"
       id="guide1827"
       inkscape:label=""
       inkscape:locked="false"
       inkscape:color="rgb(0,0,255)" />
    <sodipodi:guide
       position="150.64147,139.84666"
       orientation="0.65252917,0.75776361"
       id="guide1829" />
  </sodipodi:namedview>
  <metadata
     id="metadata5">
    <rdf:RDF>
      <cc:Work
         rdf:about="">
        <dc:format>image/svg+xml</dc:format>
        <dc:type
           rdf:resource="http://purl.org/dc/dcmitype/StillImage" />
        <dc:title></dc:title>
      </cc:Work>
    </rdf:RDF>
  </metadata>
  <g
     inkscape:groupmode="layer"
     id="layer2"
     inkscape:label="Grid"
     style="display:inline"
     transform="translate(-142.10899,82.839481)">
    <rect
       class="st0"
       width="206.76778"
       height="78.959099"
       id="rect1733"
       x="-108.11523"
       y="-118.4017"
       transform="scale(-1,1)"
       style="stroke-width:0.264583" />
    <path
       style="color:#000000;overflow:visible;fill:#000000;fill-opacity:0.380307;fill-rule:evenodd;stroke:none;stroke-width:0.79375;stroke-miterlimit:4;stroke-dasharray:none;stroke-dashoffset:0;stroke-opacity:0.296474;paint-order:markers stroke fill;stop-color:#000000"
       d="m 142.33606,-31.908807 5.52688,14.501644 h 140.70304 l -65.47879,-56.326325 -55.2329,3.027257 0.0866,17.592185 z"
       id="path1831"
       sodipodi:nodetypes="ccccccc" />
    <path
       id="rect1811"
       style="color:#000000;overflow:visible;fill:#bac5bf;fill-opacity:1;fill-rule:evenodd;stroke:none;stroke-width:3;stroke-miterlimit:4;stroke-dasharray:none;stroke-dashoffset:0;stroke-opacity:0.296474;paint-order:markers stroke fill;stop-color:#000000"
       d="m 641.61133,-281.10938 c -5.54,0 -10,4.46 -10,10 v 121.7461 c 0,5.54 4.46,10 10,10 h 195.01953 c 5.54,0 10,-4.46 10,-10 v -121.7461 c 0,-5.54 -4.46,-10 -10,-10 z m -1.98242,30.1543 h 198.98437 v 104.26367 H 639.62891 Z"
       transform="scale(0.26458334)" />
    <path
       style="color:#000000;overflow:visible;fill:none;fill-opacity:1;fill-rule:evenodd;stroke:#000000;stroke-width:0.79375;stroke-miterlimit:4;stroke-dasharray:none;stroke-dashoffset:0;stroke-opacity:0.296474;paint-order:markers stroke fill;stop-color:#000000"
       d="M 0,116.28438 H 270.93334"
       id="path840" />
    <path
       style="color:#000000;overflow:visible;fill:none;fill-opacity:1;fill-rule:evenodd;stroke:#000000;stroke-width:0.79375;stroke-miterlimit:4;stroke-dasharray:none;stroke-dashoffset:0;stroke-opacity:0.296474;paint-order:markers stroke fill;stop-color:#000000"
       d="M 0,26.590625 H 270.93334"
       id="path834" />
    <path
       style="color:#000000;overflow:visible;fill:none;fill-opacity:1;fill-rule:evenodd;stroke:#000000;stroke-width:0.79375;stroke-miterlimit:4;stroke-dasharray:none;stroke-dashoffset:0;stroke-opacity:0.296474;paint-order:markers stroke fill;stop-color:#000000"
       d="M 39.819792,203.2 V 0"
       id="path836"
       sodipodi:nodetypes="cc" />
    <path
       style="color:#000000;overflow:visible;fill:none;fill-opacity:1;fill-rule:evenodd;stroke:#000000;stroke-width:0.79375;stroke-miterlimit:4;stroke-dasharray:none;stroke-dashoffset:0;stroke-opacity:0.296474;paint-order:markers stroke fill;stop-color:#000000"
       d="M 105.96563,203.2 V 0"
       id="path838"
       sodipodi:nodetypes="cc" />
    <g
       id="g1765"
       transform="matrix(-0.39671357,0,0,0.39671357,208.95523,-93.828447)"
       style="stroke-width:0.666938">
	<g
   id="g1753"
   style="stroke-width:0.666938">
		<g
   id="g1751"
   style="stroke-width:0.666938">
			<g
   id="g1743"
   style="stroke-width:0.666938">
				<path
   class="st3"
   d="m 96,75.4 c -0.3,-0.3 -0.7,-0.5 -1.1,-0.5 h -5.5 v -7.2 l 4.2,-4.2 c 0.3,-0.3 0.5,-0.7 0.5,-1.1 0,-0.4 -0.2,-0.8 -0.5,-1.1 -0.3,-0.3 -0.7,-0.5 -1.1,-0.5 -0.4,0 -0.8,0.2 -1.1,0.5 l -4.2,4.2 H 66.7 l -4.2,-4.2 c -0.3,-0.3 -0.7,-0.5 -1.1,-0.5 -0.4,0 -0.8,0.2 -1.1,0.5 -0.3,0.3 -0.5,0.7 -0.5,1.1 0,0.4 0.2,0.8 0.5,1.1 l 4.2,4.2 v 7.2 H 59 c -0.4,0 -0.8,0.2 -1.1,0.5 -0.3,0.3 -0.5,0.7 -0.5,1.1 0,0.4 0.2,0.8 0.5,1.1 0.3,0.3 0.7,0.5 1.1,0.5 h 5.5 c 0,2.6 0.5,4.8 1.4,6.7 L 61,90.3 c -0.3,0.3 -0.4,0.7 -0.4,1.1 0,0.4 0.2,0.8 0.5,1.1 0.3,0.3 0.7,0.4 1,0.4 0.5,0 0.8,-0.2 1.2,-0.5 l 4.5,-5 0.4,0.3 c 0.2,0.2 0.6,0.5 1.1,0.8 0.5,0.3 1,0.6 1.6,1 0.6,0.3 1.3,0.6 2.1,0.8 0.8,0.2 1.6,0.3 2.5,0.3 V 68.7 h 3.1 v 21.8 c 0.8,0 1.6,-0.1 2.4,-0.3 0.8,-0.2 1.5,-0.4 2,-0.7 0.5,-0.3 1.1,-0.6 1.6,-0.9 0.5,-0.3 0.9,-0.6 1,-0.7 0.2,-0.1 0.3,-0.2 0.4,-0.3 l 4.8,4.8 c 0.3,0.3 0.7,0.5 1.1,0.5 0.4,0 0.8,-0.2 1.1,-0.5 0.3,-0.3 0.5,-0.7 0.5,-1.1 0,-0.4 -0.2,-0.8 -0.5,-1.1 L 87.9,85.1 C 89,83.2 89.5,80.8 89.5,78 H 95 c 0.4,0 0.8,-0.2 1.1,-0.5 0.3,-0.3 0.5,-0.7 0.5,-1.1 -0.1,-0.3 -0.2,-0.7 -0.6,-1 z"
   id="path1739"
   style="stroke-width:0.666938" />

				<path
   class="st2"
   d="m 91.8,94 c -0.7,0 -1.4,-0.3 -1.9,-0.8 l -4.1,-4.1 c -0.2,0.1 -0.4,0.3 -0.7,0.5 -0.5,0.4 -1.1,0.7 -1.7,1 -0.6,0.3 -1.3,0.6 -2.2,0.8 -0.9,0.2 -1.8,0.4 -2.7,0.4 h -1.1 v -22 h -0.8 v 21.8 h -1.1 c -0.9,0 -1.9,-0.1 -2.8,-0.4 C 71.8,91 71,90.7 70.3,90.3 69.7,90 69.1,89.6 68.6,89.3 68.3,89.1 68.1,89 67.9,88.8 L 64.2,93 c -0.6,0.6 -1.3,0.9 -2,0.9 -0.7,0 -1.3,-0.2 -1.8,-0.7 -0.6,-0.5 -0.9,-1.2 -0.9,-1.9 0,-0.7 0.2,-1.4 0.6,-1.9 l 4.4,-5 C 63.8,82.8 63.4,81 63.3,79.1 H 59 c -0.7,0 -1.4,-0.3 -1.9,-0.8 -0.5,-0.5 -0.8,-1.2 -0.8,-1.9 0,-0.7 0.3,-1.4 0.8,-1.9 0.5,-0.5 1.2,-0.8 1.9,-0.8 h 4.3 v -5.6 l -3.9,-3.9 c -0.5,-0.5 -0.8,-1.2 -0.8,-1.9 0,-0.7 0.3,-1.4 0.8,-1.9 1,-1 2.8,-1 3.8,0 l 3.9,3.9 h 19.6 l 3.9,-3.9 c 1,-1 2.8,-1 3.8,0 0.5,0.5 0.8,1.2 0.8,1.9 0,0.7 -0.3,1.4 -0.8,1.9 l -3.9,3.9 v 5.6 H 95 c 0.7,0 1.4,0.3 1.9,0.8 v 0 c 0.5,0.5 0.8,1.2 0.8,1.9 0,0.7 -0.3,1.4 -0.8,1.9 -0.5,0.5 -1.2,0.8 -1.9,0.8 h -4.3 c -0.1,2.1 -0.6,4.1 -1.3,5.7 l 4.5,4.5 c 0.5,0.5 0.8,1.2 0.8,1.9 0,0.7 -0.3,1.4 -0.8,1.9 -0.7,0.6 -1.3,0.9 -2.1,0.9 z m -5.9,-8 5.6,5.6 c 0.1,0.1 0.2,0.1 0.3,0.1 0.1,0 0.2,0 0.3,-0.1 0.1,-0.1 0.1,-0.2 0.1,-0.3 0,-0.1 0,-0.2 -0.1,-0.3 l -5.7,-5.7 0.4,-0.8 c 1,-1.8 1.5,-3.9 1.5,-6.5 V 76.9 H 95 c 0.1,0 0.2,0 0.3,-0.1 0.1,-0.1 0.1,-0.2 0.1,-0.3 0,-0.1 0,-0.2 -0.1,-0.3 v 0 C 95.2,76.1 95.1,76.1 95,76.1 H 88.4 V 67.3 L 93,62.7 c 0.1,-0.1 0.1,-0.2 0.1,-0.3 0,-0.1 0,-0.2 -0.1,-0.3 -0.2,-0.2 -0.4,-0.2 -0.6,0 l -4.6,4.6 H 66.3 l -4.6,-4.6 c -0.2,-0.2 -0.4,-0.2 -0.6,0 -0.1,0.2 -0.1,0.2 -0.1,0.3 0,0.1 0,0.2 0.1,0.3 l 4.6,4.6 v 8.8 h -6.6 c -0.1,0 -0.2,0 -0.3,0.1 -0.1,0.1 -0.1,0.2 -0.1,0.3 0,0.1 0,0.2 0.1,0.3 0.1,0.1 0.2,0.1 0.3,0.1 h 6.6 V 78 c 0,2.4 0.4,4.5 1.3,6.2 l 0.4,0.7 -5.5,6.1 c -0.1,0.1 -0.1,0.2 -0.1,0.3 0,0.1 0,0.2 0.1,0.3 0.1,0.1 0.4,0.2 0.6,-0.1 l 5.2,-5.9 1.2,1.1 c 0.1,0.1 0.4,0.3 0.9,0.7 0.4,0.3 1,0.6 1.5,0.9 0.5,0.3 1.1,0.5 1.9,0.7 0.3,0.1 0.7,0.2 1,0.2 V 67.5 h 5.4 v 21.7 c 0.3,0 0.6,-0.1 0.9,-0.2 0.7,-0.2 1.3,-0.4 1.8,-0.6 0.5,-0.2 1,-0.5 1.5,-0.8 0.7,-0.4 0.9,-0.6 0.9,-0.6 0.1,-0.1 0.2,-0.2 0.3,-0.2 z"
   id="path1741"
   style="stroke-width:0.666938" />

			</g>

			<g
   id="g1749"
   style="stroke-width:0.666938">
				<path
   class="st3"
   d="M 82.5,56.9 C 81,55.4 79.1,54.6 77,54.6 c -2.2,0 -4,0.8 -5.5,2.3 -1.5,1.5 -2.3,3.4 -2.3,5.5 h 15.6 c 0,-2.1 -0.7,-4 -2.3,-5.5 z"
   id="path1745"
   style="stroke-width:0.666938" />

				<path
   class="st2"
   d="M 86,63.6 H 68.1 v -1.1 c 0,-2.5 0.9,-4.6 2.6,-6.3 1.7,-1.7 3.9,-2.6 6.3,-2.6 2.5,0 4.6,0.9 6.3,2.6 1.7,1.7 2.6,3.9 2.6,6.3 v 1.1 z M 70.4,61.3 h 13.1 c -0.2,-1.4 -0.8,-2.5 -1.9,-3.6 -1.3,-1.3 -2.9,-1.9 -4.7,-1.9 -1.8,0 -3.4,0.6 -4.7,1.9 -0.9,1.1 -1.5,2.2 -1.8,3.6 z"
   id="path1747"
   style="stroke-width:0.666938" />

			</g>

		</g>

	</g>

	<circle
   class="st4"
   cx="77.5"
   cy="75"
   r="44.099998"
   id="circle1755"
   style="stroke-width:0.666938" />

	<g
   id="g1763"
   style="stroke-width:0.666938">
		<g
   id="g1761"
   style="stroke-width:0.666938">
			<path
   class="st2"
   d="m 157.5,163.8 8.6,-8.6 c 1.1,-1.1 1.1,-3 0,-4.1 l -42.5,-42.5 -12.7,12.7 42.5,42.5 c 1.1,1.2 3,1.2 4.1,0 z"
   id="path1757"
   style="stroke-width:0.666938" />

			<path
   class="st2"
   d="m 125.5,106.8 c -1,-1 -2.6,-1 -3.6,0 l -4.5,4.5 -6,-6 c 7.4,-8.2 11.9,-19.1 11.9,-31 C 123.3,48.6 102.4,27.7 76.7,27.7 51,27.7 30,48.6 30,74.3 c 0,25.7 20.9,46.6 46.6,46.6 11.9,0 22.8,-4.5 31,-11.9 l 6,6 -4.5,4.5 c -0.5,0.5 -0.8,1.1 -0.8,1.8 0,0.7 0.3,1.3 0.8,1.8 l 40.4,40.4 c 1.6,1.6 3.7,2.5 6,2.5 2.3,0 4.4,-0.9 6,-2.5 L 166,159 c 1.6,-1.6 2.5,-3.7 2.5,-6 0,-2.3 -0.9,-4.4 -2.5,-6 z M 35.2,74.3 c 0,-22.8 18.6,-41.4 41.4,-41.4 22.8,0 41.4,18.5 41.4,41.4 0,22.9 -18.6,41.4 -41.4,41.4 -22.8,0 -41.4,-18.6 -41.4,-41.4 z m 127,81.2 -4.5,4.5 c -0.6,0.6 -1.4,1 -2.3,1 -0.9,0 -1.7,-0.3 -2.3,-1 l -38.6,-38.6 9.1,-9.1 38.6,38.6 c 0.6,0.6 1,1.4 1,2.3 0,0.8 -0.4,1.7 -1,2.3 z"
   id="path1759"
   style="stroke-width:0.666938" />

		</g>

	</g>

</g>
    <circle
       style="color:#000000;overflow:visible;fill:#ffffff;fill-opacity:1;fill-rule:evenodd;stroke:none;stroke-width:0.79375;stroke-miterlimit:4;stroke-dasharray:none;stroke-dashoffset:0;stroke-opacity:0.296474;paint-order:markers stroke fill;stop-color:#000000"
       id="path1815"
       cx="219.5957"
       cy="-70.369431"
       r="2.2873342" />
    <circle
       style="color:#000000;overflow:visible;fill:#ffffff;fill-opacity:1;fill-rule:evenodd;stroke:none;stroke-width:0.79375;stroke-miterlimit:4;stroke-dasharray:none;stroke-dashoffset:0;stroke-opacity:0.296474;paint-order:markers stroke fill;stop-color:#000000"
       id="circle1817"
       cx="213.84808"
       cy="-70.369431"
       r="2.2873342" />
    <circle
       style="color:#000000;overflow:visible;fill:#ffffff;fill-opacity:1;fill-rule:evenodd;stroke:none;stroke-width:0.79375;stroke-miterlimit:4;stroke-dasharray:none;stroke-dashoffset:0;stroke-opacity:0.296474;paint-order:markers stroke fill;stop-color:#000000"
       id="circle1819"
       cx="208.10046"
       cy="-70.369431"
       r="2.2873342" />
  </g>
  <g
     inkscape:label="Areas"
     inkscape:groupmode="layer"
     id="layer1"
     style="display:inline"
     transform="translate(-142.10899,82.839481)">
    <rect
       style="color:#000000;overflow:visible;fill:#ff6600;fill-opacity:0.2;fill-rule:evenodd;stroke:#000000;stroke-width:0.264583;stroke-miterlimit:4;stroke-dasharray:none;stroke-dashoffset:0;stroke-opacity:1;paint-order:markers stroke fill;stop-color:#000000"
       id="rect842"
       width="265.37711"
       height="20.902084"
       x="2.778125"
       y="2.7781248" />
    <rect
       style="color:#000000;overflow:visible;fill:#ff0000;fill-opacity:0.2;fill-rule:evenodd;stroke:#000000;stroke-width:0.264583;stroke-miterlimit:4;stroke-dasharray:none;stroke-dashoffset:0;stroke-opacity:1;paint-order:markers stroke fill;stop-color:#000000"
       id="rect844"
       width="34.131252"
       height="171.18542"
       x="2.7781248"
       y="29.236458" />
    <rect
       style="color:#000000;overflow:visible;fill:#0066ff;fill-opacity:0.2;fill-rule:evenodd;stroke:#000000;stroke-width:0.264582;stroke-miterlimit:4;stroke-dasharray:none;stroke-dashoffset:0;stroke-opacity:1;paint-order:markers stroke fill;stop-color:#000000"
       id="rect846"
       width="60.589584"
       height="171.18542"
       x="42.465626"
       y="29.236458" />
    <rect
       style="color:#000000;overflow:visible;fill:#00ff00;fill-opacity:0.2;fill-rule:evenodd;stroke:#000000;stroke-width:0.264581;stroke-miterlimit:4;stroke-dasharray:none;stroke-dashoffset:0;stroke-opacity:1;paint-order:markers stroke fill;stop-color:#000000"
       id="rect848"
       width="159.54376"
       height="84.402084"
       x="108.61146"
       y="29.236458" />
    <rect
       style="color:#000000;overflow:visible;fill:#cc00ff;fill-opacity:0.2;fill-rule:evenodd;stroke:#000000;stroke-width:0.264582;stroke-miterlimit:4;stroke-dasharray:none;stroke-dashoffset:0;stroke-opacity:1;paint-order:markers stroke fill;stop-color:#000000"
       id="rect850"
       width="159.54376"
       height="81.227089"
       x="108.61147"
       y="119.19479" />
  </g>
  <g
     inkscape:groupmode="layer"
     id="layer3"
     inkscape:label="Labels"
     transform="translate(-142.10899,82.839481)">
    <text
       xml:space="preserve"
       style="font-style:normal;font-variant:normal;font-weight:bold;font-stretch:normal;font-size:16px;line-height:125%;font-family:Terminus;-inkscape-font-specification:'Terminus Bold';font-variant-ligatures:normal;font-variant-position:normal;font-variant-caps:normal;font-variant-numeric:normal;font-variant-alternates:normal;font-variant-east-asian:normal;font-feature-settings:normal;font-variation-settings:normal;text-indent:0;text-align:start;text-decoration:none;text-decoration-line:none;text-decoration-style:solid;text-decoration-color:#000000;letter-spacing:0px;word-spacing:0px;text-transform:none;writing-mode:lr-tb;direction:ltr;text-orientation:mixed;dominant-baseline:auto;baseline-shift:baseline;text-anchor:start;white-space:normal;shape-padding:0;shape-margin:0;inline-size:0;vector-effect:none;fill:#000000;fill-opacity:1;stroke:none;stroke-width:0.999999px;stroke-linecap:butt;stroke-linejoin:miter;stroke-miterlimit:4;stroke-dasharray:none;stroke-dashoffset:0;stroke-opacity:1;stop-color:#000000"
       x="311.70288"
       y="48.046326"
       id="text890"
       transform="matrix(0.26458334,0,0,0.26458334,97.507292,2.0951079)"><tspan
         sodipodi:role="line"
         id="tspan888"
         x="311.70288"
         y="48.046326">header</tspan></text>
    <text
       xml:space="preserve"
       style="font-style:normal;font-variant:normal;font-weight:bold;font-stretch:normal;font-size:16px;line-height:125%;font-family:Terminus;-inkscape-font-specification:'Terminus Bold';font-variant-ligatures:normal;font-variant-position:normal;font-variant-caps:normal;font-variant-numeric:normal;font-variant-alternates:normal;font-variant-east-asian:normal;font-feature-settings:normal;font-variation-settings:normal;text-indent:0;text-align:start;text-decoration:none;text-decoration-line:none;text-decoration-style:solid;text-decoration-color:#000000;letter-spacing:0px;word-spacing:0px;text-transform:none;writing-mode:lr-tb;direction:ltr;text-orientation:mixed;dominant-baseline:auto;baseline-shift:baseline;text-anchor:start;white-space:normal;shape-padding:0;shape-margin:0;inline-size:0;vector-effect:none;fill:#000000;fill-opacity:1;stroke:none;stroke-width:0.999999px;stroke-linecap:butt;stroke-linejoin:miter;stroke-miterlimit:4;stroke-dasharray:none;stroke-dashoffset:0;stroke-opacity:1;stop-color:#000000"
       x="311.70288"
       y="48.046326"
       id="text894"
       transform="matrix(0.26458334,0,0,0.26458334,-70.917572,59.453882)"><tspan
         sodipodi:role="line"
         id="tspan892"
         x="311.70288"
         y="48.046326">groups</tspan></text>
    <text
       xml:space="preserve"
       style="font-style:normal;font-variant:normal;font-weight:bold;font-stretch:normal;font-size:16px;line-height:125%;font-family:Terminus;-inkscape-font-specification:'Terminus Bold';font-variant-ligatures:normal;font-variant-position:normal;font-variant-caps:normal;font-variant-numeric:normal;font-variant-alternates:normal;font-variant-east-asian:normal;font-feature-settings:normal;font-variation-settings:normal;text-indent:0;text-align:start;text-decoration:none;text-decoration-line:none;text-decoration-style:solid;text-decoration-color:#000000;letter-spacing:0px;word-spacing:0px;text-transform:none;writing-mode:lr-tb;direction:ltr;text-orientation:mixed;dominant-baseline:auto;baseline-shift:baseline;text-anchor:start;white-space:normal;shape-padding:0;shape-margin:0;inline-size:0;vector-effect:none;fill:#000000;fill-opacity:1;stroke:none;stroke-width:0.999999px;stroke-linecap:butt;stroke-linejoin:miter;stroke-miterlimit:4;stroke-dasharray:none;stroke-dashoffset:0;stroke-opacity:1;stop-color:#000000"
       x="311.70288"
       y="48.046326"
       id="text898"
       transform="matrix(0.26458334,0,0,0.26458334,-22.780975,59.876595)"><tspan
         sodipodi:role="line"
         id="tspan896"
         x="311.70288"
         y="48.046326">log-entries</tspan></text>
    <text
       xml:space="preserve"
       style="font-style:normal;font-variant:normal;font-weight:bold;font-stretch:normal;font-size:16px;line-height:125%;font-family:Terminus;-inkscape-font-specification:'Terminus Bold';font-variant-ligatures:normal;font-variant-position:normal;font-variant-caps:normal;font-variant-numeric:normal;font-variant-alternates:normal;font-variant-east-asian:normal;font-feature-settings:normal;font-variation-settings:normal;text-indent:0;text-align:start;text-decoration:none;text-decoration-line:none;text-decoration-style:solid;text-decoration-color:#000000;letter-spacing:0px;word-spacing:0px;text-transform:none;writing-mode:lr-tb;direction:ltr;text-orientation:mixed;dominant-baseline:auto;baseline-shift:baseline;text-anchor:start;white-space:normal;shape-padding:0;shape-margin:0;inline-size:0;vector-effect:none;fill:#000000;fill-opacity:1;stroke:none;stroke-width:0.999999px;stroke-linecap:butt;stroke-linejoin:miter;stroke-miterlimit:4;stroke-dasharray:none;stroke-dashoffset:0;stroke-opacity:1;stop-color:#000000"
       x="311.70288"
       y="48.046326"
       id="text902"
       transform="matrix(0.26458334,0,0,0.26458334,93.347342,59.876595)"><tspan
         sodipodi:role="line"
         id="tspan900"
         x="311.70288"
         y="48.046326">entry-data</tspan></text>
    <text
       xml:space="preserve"
       style="font-style:normal;font-variant:normal;font-weight:bold;font-stretch:normal;font-size:16px;line-height:125%;font-family:Terminus;-inkscape-font-specification:'Terminus Bold';font-variant-ligatures:normal;font-variant-position:normal;font-variant-caps:normal;font-variant-numeric:normal;font-variant-alternates:normal;font-variant-east-asian:normal;font-feature-settings:normal;font-variation-settings:normal;text-indent:0;text-align:start;text-decoration:none;text-decoration-line:none;text-decoration-style:solid;text-decoration-color:#000000;letter-spacing:0px;word-spacing:0px;text-transform:none;writing-mode:lr-tb;direction:ltr;text-orientation:mixed;dominant-baseline:auto;baseline-shift:baseline;text-anchor:start;white-space:normal;shape-padding:0;shape-margin:0;inline-size:0;vector-effect:none;fill:#000000;fill-opacity:1;stroke:none;stroke-width:0.999999px;stroke-linecap:butt;stroke-linejoin:miter;stroke-miterlimit:4;stroke-dasharray:none;stroke-dashoffset:0;stroke-opacity:1;stop-color:#000000"
       x="311.70288"
       y="48.046326"
       id="text906"
       transform="matrix(0.26458334,0,0,0.26458334,86.886769,148.24743)"><tspan
         sodipodi:role="line"
         id="tspan904"
         x="311.70288"
         y="48.046326">entry-backtrace</tspan></text>
    <text
       xml:space="preserve"
       style="font-style:normal;font-variant:normal;font-weight:bold;font-stretch:normal;font-size:16px;line-height:125%;font-family:Terminus;-inkscape-font-specification:'Terminus Bold';font-variant-ligatures:normal;font-variant-position:normal;font-variant-caps:normal;font-variant-numeric:normal;font-variant-alternates:normal;font-variant-east-asian:normal;font-feature-settings:normal;font-variation-settings:normal;text-indent:0;text-align:start;text-decoration:none;text-decoration-line:none;text-decoration-style:solid;text-decoration-color:#000000;letter-spacing:0px;word-spacing:0px;text-transform:none;writing-mode:lr-tb;direction:ltr;text-orientation:mixed;dominant-baseline:auto;baseline-shift:baseline;text-anchor:start;white-space:normal;shape-padding:0;shape-margin:0;inline-size:0;vector-effect:none;fill:#000000;fill-opacity:1;stroke:none;stroke-width:0.999999px;stroke-linecap:butt;stroke-linejoin:miter;stroke-miterlimit:4;stroke-dasharray:none;stroke-dashoffset:0;stroke-opacity:1;stop-color:#000000"
       x="311.70288"
       y="48.046326"
       id="text910"
       transform="matrix(0.26458334,0,0,0.26458334,-70.917572,147.82472)"><tspan
         sodipodi:role="line"
         id="tspan908"
         x="311.70288"
         y="48.046326">groups</tspan></text>
    <text
       xml:space="preserve"
       style="font-style:normal;font-variant:normal;font-weight:bold;font-stretch:normal;font-size:16px;line-height:125%;font-family:Terminus;-inkscape-font-specification:'Terminus Bold';font-variant-ligatures:normal;font-variant-position:normal;font-variant-caps:normal;font-variant-numeric:normal;font-variant-alternates:normal;font-variant-east-asian:normal;font-feature-settings:normal;font-variation-settings:normal;text-indent:0;text-align:start;text-decoration:none;text-decoration-line:none;text-decoration-style:solid;text-decoration-color:#000000;letter-spacing:0px;word-spacing:0px;text-transform:none;writing-mode:lr-tb;direction:ltr;text-orientation:mixed;dominant-baseline:auto;baseline-shift:baseline;text-anchor:start;white-space:normal;shape-padding:0;shape-margin:0;inline-size:0;vector-effect:none;fill:#000000;fill-opacity:1;stroke:none;stroke-width:0.999999px;stroke-linecap:butt;stroke-linejoin:miter;stroke-miterlimit:4;stroke-dasharray:none;stroke-dashoffset:0;stroke-opacity:1;stop-color:#000000"
       x="311.70288"
       y="48.046326"
       id="text918"
       transform="matrix(0.26458334,0,0,0.26458334,-18.115626,2.0951079)"><tspan
         sodipodi:role="line"
         id="tspan916"
         x="311.70288"
         y="48.046326">header</tspan></text>
    <text
       xml:space="preserve"
       style="font-style:normal;font-variant:normal;font-weight:bold;font-stretch:normal;font-size:16px;line-height:125%;font-family:Terminus;-inkscape-font-specification:'Terminus Bold';font-variant-ligatures:normal;font-variant-position:normal;font-variant-caps:normal;font-variant-numeric:normal;font-variant-alternates:normal;font-variant-east-asian:normal;font-feature-settings:normal;font-variation-settings:normal;text-indent:0;text-align:start;text-decoration:none;text-decoration-line:none;text-decoration-style:solid;text-decoration-color:#000000;letter-spacing:0px;word-spacing:0px;text-transform:none;writing-mode:lr-tb;direction:ltr;text-orientation:mixed;dominant-baseline:auto;baseline-shift:baseline;text-anchor:start;white-space:normal;shape-padding:0;shape-margin:0;inline-size:0;vector-effect:none;fill:#000000;fill-opacity:1;stroke:none;stroke-width:0.999999px;stroke-linecap:butt;stroke-linejoin:miter;stroke-miterlimit:4;stroke-dasharray:none;stroke-dashoffset:0;stroke-opacity:1;stop-color:#000000"
       x="311.70288"
       y="48.046326"
       id="text922"
       transform="matrix(0.26458334,0,0,0.26458334,-71.032294,2.0951079)"><tspan
         sodipodi:role="line"
         id="tspan920"
         x="311.70288"
         y="48.046326">header</tspan></text>
    <text
       xml:space="preserve"
       style="font-style:normal;font-variant:normal;font-weight:bold;font-stretch:normal;font-size:16px;line-height:125%;font-family:Terminus;-inkscape-font-specification:'Terminus Bold';font-variant-ligatures:normal;font-variant-position:normal;font-variant-caps:normal;font-variant-numeric:normal;font-variant-alternates:normal;font-variant-east-asian:normal;font-feature-settings:normal;font-variation-settings:normal;text-indent:0;text-align:start;text-decoration:none;text-decoration-line:none;text-decoration-style:solid;text-decoration-color:#000000;letter-spacing:0px;word-spacing:0px;text-transform:none;writing-mode:lr-tb;direction:ltr;text-orientation:mixed;dominant-baseline:auto;baseline-shift:baseline;text-anchor:start;white-space:normal;shape-padding:0;shape-margin:0;inline-size:0;vector-effect:none;fill:#000000;fill-opacity:1;stroke:none;stroke-width:0.999999px;stroke-linecap:butt;stroke-linejoin:miter;stroke-miterlimit:4;stroke-dasharray:none;stroke-dashoffset:0;stroke-opacity:1;stop-color:#000000"
       x="311.70288"
       y="48.046326"
       id="text926"
       transform="matrix(0.26458334,0,0,0.26458334,-22.780975,147.82472)"><tspan
         sodipodi:role="line"
         id="tspan924"
         x="311.70288"
         y="48.046326">log-entries</tspan></text>
  </g>
  <style
     type="text/css"
     id="style1691">
	.st0{fill-rule:evenodd;clip-rule:evenodd;fill:#2A486D;}
	.st1{fill-rule:evenodd;clip-rule:evenodd;fill:#FFFFFF;}
</style>
  <style
     type="text/css"
     id="style1731">
	.st0{fill:#C33E42;}
	.st1{opacity:0.5;}
	.st2{fill:#FFFFFF;}
	.st3{fill:#BF0811;}
	.st4{opacity:0.3;fill:#FFFFFF;}
</style>
</svg>
